<svg xmlns="http://www.w3.org/2000/svg" viewBox="0 0 1600 1000" width="1600" height="1000"><rect width="1600" height="1000" fill="#071a1c"/><rect x="80" y="44" width="160" height="18" rx="9" fill="#fff" opacity=".9"/><rect x="1300" y="34" width="220" height="38" rx="19" fill="#14b8a6"/><rect x="640" y="150" width="320" height="14" rx="7" fill="#14b8a6"/><rect x="500" y="190" width="600" height="48" rx="10" fill="#fff"/><g fill="#0c2628" stroke="#fff" stroke-opacity=".08"><rect x="80" y="300" width="440" height="520" rx="24"/><rect x="1080" y="300" width="440" height="520" rx="24"/></g><rect x="560" y="270" width="480" height="580" rx="24" fill="#0c2628" stroke="#14b8a6" stroke-width="2"/><rect x="740" y="250" width="120" height="34" rx="17" fill="#14b8a6"/><g fill="#fff" opacity=".8"><rect x="120" y="350" width="160" height="18" rx="9"/><rect x="600" y="330" width="160" height="18" rx="9"/><rect x="1120" y="350" width="160" height="18" rx="9"/></g><g fill="#fff"><rect x="120" y="390" width="200" height="44" rx="8"/><rect x="600" y="370" width="240" height="52" rx="8"/><rect x="1120" y="390" width="200" height="44" rx="8"/></g><g fill="#fff" opacity=".35"><rect x="120" y="470" width="340" height="12" rx="6"/><rect x="120" y="500" width="300" height="12" rx="6"/><rect x="120" y="530" width="320" height="12" rx="6"/><rect x="120" y="560" width="260" height="12" rx="6"/><rect x="600" y="460" width="380" height="12" rx="6"/><rect x="600" y="490" width="340" height="12" rx="6"/><rect x="600" y="520" width="360" height="12" rx="6"/><rect x="600" y="550" width="300" height="12" rx="6"/><rect x="600" y="580" width="340" height="12" rx="6"/><rect x="1120" y="470" width="340" height="12" rx="6"/><rect x="1120" y="500" width="300" height="12" rx="6"/><rect x="1120" y="530" width="320" height="12" rx="6"/></g><g fill="#14b8a6"><circle cx="104" cy="476" r="5"/><circle cx="104" cy="506" r="5"/><circle cx="104" cy="536" r="5"/><circle cx="104" cy="566" r="5"/><circle cx="584" cy="466" r="5"/><circle cx="584" cy="496" r="5"/><circle cx="584" cy="526" r="5"/><circle cx="584" cy="556" r="5"/><circle cx="584" cy="586" r="5"/><circle cx="1104" cy="476" r="5"/><circle cx="1104" cy="506" r="5"/><circle cx="1104" cy="536" r="5"/></g><rect x="120" y="740" width="360" height="50" rx="25" fill="none" stroke="#fff" stroke-opacity=".5" stroke-width="2"/><rect x="600" y="760" width="400" height="54" rx="27" fill="#14b8a6"/><rect x="1120" y="740" width="360" height="50" rx="25" fill="none" stroke="#fff" stroke-opacity=".5" stroke-width="2"/><text x="80" y="968" font-family="Inter,Arial,sans-serif" font-size="18" fill="#fff" opacity=".35">Demo mockup · Nautisoft Wash · Packages</text></svg>
