<svg xmlns="http://www.w3.org/2000/svg" viewBox="0 0 1600 1000" width="1600" height="1000"><rect width="1600" height="1000" fill="#0b1220"/><rect x="80" y="44" width="170" height="18" rx="9" fill="#fff" opacity=".9"/><rect x="1240" y="34" width="280" height="38" rx="19" fill="#0ea5e9"/><rect x="80" y="150" width="140" height="14" rx="7" fill="#0ea5e9"/><rect x="80" y="190" width="640" height="48" rx="10" fill="#fff"/><rect x="80" y="260" width="500" height="14" rx="7" fill="#fff" opacity=".5"/><rect x="80" y="340" width="960" height="560" rx="20" fill="#111a2b" stroke="#fff" stroke-opacity=".08"/><g stroke="#0ea5e9" stroke-width="3" fill="none" opacity=".9"><circle cx="200" cy="440" r="22"/><circle cx="200" cy="560" r="22"/><circle cx="200" cy="680" r="22"/><circle cx="200" cy="800" r="22"/><path d="M200 462v76M200 582v76M200 702v76"/></g><g fill="#fff" opacity=".75"><rect x="260" y="430" width="300" height="18" rx="9"/><rect x="260" y="550" width="300" height="18" rx="9"/><rect x="260" y="670" width="300" height="18" rx="9"/><rect x="260" y="790" width="300" height="18" rx="9"/></g><g fill="#fff" opacity=".3"><rect x="260" y="462" width="700" height="12" rx="6"/><rect x="260" y="582" width="660" height="12" rx="6"/><rect x="260" y="702" width="700" height="12" rx="6"/><rect x="260" y="822" width="600" height="12" rx="6"/></g><rect x="1080" y="340" width="440" height="560" rx="20" fill="#111a2b" stroke="#0ea5e9" stroke-opacity=".5"/><rect x="1120" y="390" width="240" height="20" rx="10" fill="#fff" opacity=".8"/><g fill="#0b1220" stroke="#fff" stroke-opacity=".15"><rect x="1120" y="440" width="360" height="48" rx="10"/><rect x="1120" y="508" width="360" height="48" rx="10"/><rect x="1120" y="576" width="360" height="48" rx="10"/><rect x="1120" y="644" width="360" height="120" rx="10"/></g><rect x="1120" y="800" width="360" height="54" rx="27" fill="#0ea5e9"/><text x="80" y="968" font-family="Inter,Arial,sans-serif" font-size="18" fill="#fff" opacity=".35">Demo mockup · Trenchless Today · Service page</text></svg>
