<svg xmlns="http://www.w3.org/2000/svg" viewBox="0 0 1600 1000" width="1600" height="1000"><rect width="1600" height="1000" fill="#f5f8f2"/><rect x="80" y="44" width="180" height="18" rx="9" fill="#0f1f14"/><rect x="1300" y="34" width="220" height="38" rx="19" fill="#22c55e"/><rect x="80" y="150" width="560" height="48" rx="12" fill="#0f1f14"/><g fill="#fff" stroke="#0f1f14" stroke-opacity=".15"><rect x="80" y="230" width="140" height="40" rx="20"/><rect x="240" y="230" width="140" height="40" rx="20"/><rect x="400" y="230" width="140" height="40" rx="20"/><rect x="560" y="230" width="140" height="40" rx="20"/></g><rect x="80" y="230" width="140" height="40" rx="20" fill="#0f1f14"/><g fill="#fff" stroke="#0f1f14" stroke-opacity=".08"><rect x="80" y="310" width="340" height="280" rx="24"/><rect x="450" y="310" width="340" height="280" rx="24"/><rect x="820" y="310" width="340" height="280" rx="24"/><rect x="1190" y="310" width="330" height="280" rx="24"/><rect x="80" y="620" width="340" height="280" rx="24"/><rect x="450" y="620" width="340" height="280" rx="24"/><rect x="820" y="620" width="340" height="280" rx="24"/><rect x="1190" y="620" width="330" height="280" rx="24"/></g><g fill="#22c55e" opacity=".22"><rect x="100" y="330" width="300" height="120" rx="16"/><rect x="470" y="330" width="300" height="120" rx="16"/><rect x="840" y="330" width="300" height="120" rx="16"/><rect x="1210" y="330" width="290" height="120" rx="16"/><rect x="100" y="640" width="300" height="120" rx="16"/><rect x="470" y="640" width="300" height="120" rx="16"/><rect x="840" y="640" width="300" height="120" rx="16"/><rect x="1210" y="640" width="290" height="120" rx="16"/></g><g fill="#0f1f14" opacity=".8"><rect x="110" y="476" width="200" height="16" rx="8"/><rect x="480" y="476" width="200" height="16" rx="8"/><rect x="850" y="476" width="200" height="16" rx="8"/><rect x="1220" y="476" width="200" height="16" rx="8"/><rect x="110" y="786" width="200" height="16" rx="8"/><rect x="480" y="786" width="200" height="16" rx="8"/><rect x="850" y="786" width="200" height="16" rx="8"/><rect x="1220" y="786" width="200" height="16" rx="8"/></g><g fill="#0f1f14" opacity=".3"><rect x="110" y="506" width="260" height="10" rx="5"/><rect x="480" y="506" width="260" height="10" rx="5"/><rect x="850" y="506" width="260" height="10" rx="5"/><rect x="1220" y="506" width="240" height="10" rx="5"/><rect x="110" y="816" width="260" height="10" rx="5"/><rect x="480" y="816" width="260" height="10" rx="5"/><rect x="850" y="816" width="260" height="10" rx="5"/><rect x="1220" y="816" width="240" height="10" rx="5"/></g><g fill="#22c55e"><rect x="110" y="540" width="120" height="32" rx="16"/><rect x="480" y="540" width="120" height="32" rx="16"/><rect x="850" y="540" width="120" height="32" rx="16"/><rect x="1220" y="540" width="120" height="32" rx="16"/><rect x="110" y="850" width="120" height="32" rx="16"/><rect x="480" y="850" width="120" height="32" rx="16"/><rect x="850" y="850" width="120" height="32" rx="16"/><rect x="1220" y="850" width="120" height="32" rx="16"/></g><text x="80" y="968" font-family="Inter,Arial,sans-serif" font-size="18" fill="#0f1f14" opacity=".4">Demo mockup · English Explorers · Courses</text></svg>
