<svg xmlns="http://www.w3.org/2000/svg" viewBox="0 0 1600 1000" width="1600" height="1000"><rect width="1600" height="1000" fill="#faf6f3"/><rect x="80" y="44" width="170" height="18" rx="9" fill="#1c1416"/><rect x="1300" y="34" width="220" height="38" rx="19" fill="#1c1416"/><rect x="80" y="150" width="120" height="14" rx="7" fill="#e11d74"/><rect x="80" y="190" width="620" height="52" rx="10" fill="#1c1416"/><rect x="80" y="270" width="520" height="14" rx="7" fill="#1c1416" opacity=".4"/><rect x="80" y="340" width="900" height="560" rx="24" fill="#fff" stroke="#1c1416" stroke-opacity=".08"/><g fill="#1c1416" opacity=".85"><rect x="130" y="400" width="220" height="18" rx="9"/><rect x="130" y="540" width="220" height="18" rx="9"/><rect x="130" y="680" width="220" height="18" rx="9"/></g><g fill="#1c1416" opacity=".3"><rect x="130" y="436" width="780" height="12" rx="6"/><rect x="130" y="460" width="700" height="12" rx="6"/><rect x="130" y="484" width="740" height="12" rx="6"/><rect x="130" y="576" width="780" height="12" rx="6"/><rect x="130" y="600" width="660" height="12" rx="6"/><rect x="130" y="624" width="720" height="12" rx="6"/><rect x="130" y="716" width="780" height="12" rx="6"/><rect x="130" y="740" width="600" height="12" rx="6"/></g><g stroke="#e11d74" stroke-opacity=".4"><line x1="130" y1="520" x2="930" y2="520"/><line x1="130" y1="660" x2="930" y2="660"/></g><rect x="1020" y="340" width="500" height="560" rx="24" fill="#efe1dc"/><rect x="1060" y="390" width="280" height="22" rx="11" fill="#1c1416" opacity=".85"/><rect x="1060" y="430" width="380" height="12" rx="6" fill="#1c1416" opacity=".35"/><g fill="#fff"><rect x="1060" y="480" width="420" height="48" rx="10"/><rect x="1060" y="548" width="420" height="48" rx="10"/><rect x="1060" y="616" width="420" height="48" rx="10"/><rect x="1060" y="684" width="420" height="100" rx="10"/></g><rect x="1060" y="810" width="420" height="54" rx="27" fill="#1c1416"/><text x="80" y="968" font-family="Inter,Arial,sans-serif" font-size="18" fill="#1c1416" opacity=".4">Demo mockup · Hinkley Aesthetics · Treatment page</text></svg>
